<svg width="1280" height="720" viewBox="0 0 1280 720" fill="none" xmlns="http://www.w3.org/2000/svg">
  <defs>
    <linearGradient id="wwBg" x1="70" y1="48" x2="1210" y2="660" gradientUnits="userSpaceOnUse">
      <stop stop-color="#FFFDF5"/>
      <stop offset="0.5" stop-color="#F8FAFC"/>
      <stop offset="1" stop-color="#ECFEFF"/>
    </linearGradient>
    <linearGradient id="wwPanel" x1="250" y1="110" x2="1040" y2="610" gradientUnits="userSpaceOnUse">
      <stop stop-color="#0F172A"/>
      <stop offset="0.5" stop-color="#111827"/>
      <stop offset="1" stop-color="#0F766E"/>
    </linearGradient>
    <linearGradient id="wwSurface" x1="472" y1="176" x2="980" y2="560" gradientUnits="userSpaceOnUse">
      <stop stop-color="#FFFFFF"/>
      <stop offset="1" stop-color="#F8FAFC"/>
    </linearGradient>
    <linearGradient id="wwAccent" x1="0" y1="0" x2="1" y2="1">
      <stop stop-color="#14B8A6"/>
      <stop offset="1" stop-color="#38BDF8"/>
    </linearGradient>
    <filter id="wwPanelShadow" x="180" y="90" width="940" height="560" filterUnits="userSpaceOnUse" color-interpolation-filters="sRGB">
      <feDropShadow dx="0" dy="40" stdDeviation="35" flood-color="#0F172A" flood-opacity="0.16"/>
    </filter>
    <filter id="wwFloatShadow" x="-20%" y="-20%" width="140%" height="160%" filterUnits="objectBoundingBox" color-interpolation-filters="sRGB">
      <feDropShadow dx="0" dy="20" stdDeviation="22" flood-color="#0F172A" flood-opacity="0.16"/>
    </filter>
  </defs>

  <rect width="1280" height="720" rx="40" fill="url(#wwBg)"/>
  <circle cx="167" cy="124" r="116" fill="#DBEAFE"/>
  <circle cx="1112" cy="126" r="98" fill="#CCFBF1"/>
  <circle cx="1088" cy="616" r="120" fill="#FEF3C7"/>
  <path d="M96 566C204 512 346 490 484 528C616 564 758 596 912 560C1034 531 1128 468 1192 408" stroke="#BFDBFE" stroke-width="24" stroke-linecap="round" opacity="0.45"/>

  <g filter="url(#wwPanelShadow)">
    <rect x="230" y="118" width="820" height="484" rx="38" fill="url(#wwPanel)"/>
    <rect x="230.75" y="118.75" width="818.5" height="482.5" rx="37.25" stroke="white" stroke-opacity="0.08" stroke-width="1.5"/>
  </g>

  <rect x="472" y="156" width="536" height="408" rx="30" fill="url(#wwSurface)"/>
  <rect x="472.75" y="156.75" width="534.5" height="406.5" rx="29.25" stroke="#E2E8F0" stroke-width="1.5"/>

  <g opacity="0.96">
    <rect x="266" y="156" width="54" height="54" rx="16" fill="url(#wwAccent)"/>
    <path d="M279 172L286 194L293.5 180L301 194L308.5 172" stroke="white" stroke-width="4" stroke-linecap="round" stroke-linejoin="round"/>
    <path d="M282 168H310" stroke="#CFFAFE" stroke-width="2.6" stroke-linecap="round" opacity="0.85"/>
    <text x="336" y="178" fill="#FFFFFF" font-size="26" font-weight="800" font-family="Segoe UI, Arial, sans-serif">Wealth Wise</text>
    <text x="336" y="199" fill="#A5F3FC" font-size="10.5" font-weight="700" letter-spacing="3" font-family="Segoe UI, Arial, sans-serif">CONTROL CENTER</text>
  </g>

  <g font-family="Segoe UI, Arial, sans-serif">
    <text x="266" y="262" fill="#7DD3FC" font-size="11" font-weight="700" letter-spacing="3">WORKSPACE</text>
    <rect x="266" y="280" width="164" height="40" rx="14" fill="white" fill-opacity="0.12"/>
    <text x="296" y="305" fill="#F8FAFC" font-size="16" font-weight="700">Overview</text>

    <text x="296" y="356" fill="#CBD5E1" font-size="15">Cashflow</text>
    <text x="296" y="402" fill="#CBD5E1" font-size="15">Budgets</text>
    <text x="296" y="448" fill="#CBD5E1" font-size="15">Investments</text>
    <text x="296" y="494" fill="#CBD5E1" font-size="15">Transactions</text>
    <text x="296" y="540" fill="#CBD5E1" font-size="15">Goals</text>
  </g>

  <g fill="#94A3B8">
    <rect x="276" y="346" width="10" height="10" rx="3" fill="#38BDF8"/>
    <rect x="276" y="392" width="10" height="10" rx="3" fill="#14B8A6"/>
    <rect x="276" y="438" width="10" height="10" rx="3" fill="#F59E0B"/>
    <rect x="276" y="484" width="10" height="10" rx="3" fill="#A78BFA"/>
    <rect x="276" y="530" width="10" height="10" rx="3" fill="#34D399"/>
  </g>

  <g font-family="Segoe UI, Arial, sans-serif">
    <text x="508" y="204" fill="#0F172A" font-size="30" font-weight="800">Personal finance at a glance</text>
    <text x="508" y="230" fill="#64748B" font-size="15">Track spending, build savings, and review performance without spreadsheet clutter.</text>
  </g>

  <g filter="url(#wwFloatShadow)">
    <rect x="508" y="258" width="148" height="106" rx="24" fill="#F8FAFC"/>
    <rect x="674" y="258" width="148" height="106" rx="24" fill="#EFF6FF"/>
    <rect x="840" y="258" width="132" height="106" rx="24" fill="#082F49"/>
  </g>

  <g font-family="Segoe UI, Arial, sans-serif">
    <text x="532" y="290" fill="#64748B" font-size="12" font-weight="700" letter-spacing="2.2">NET WORTH</text>
    <text x="532" y="329" fill="#0F172A" font-size="30" font-weight="800">$82.4K</text>
    <text x="532" y="348" fill="#10B981" font-size="13" font-weight="700">+12.8% vs last month</text>

    <text x="698" y="290" fill="#64748B" font-size="12" font-weight="700" letter-spacing="2.2">BUDGET LEFT</text>
    <text x="698" y="329" fill="#0F172A" font-size="30" font-weight="800">$3.1K</text>
    <text x="698" y="348" fill="#0284C7" font-size="13" font-weight="700">Plenty of room this week</text>

    <text x="864" y="290" fill="#A5F3FC" font-size="12" font-weight="700" letter-spacing="2.2">SCORE</text>
    <text x="864" y="329" fill="#FFFFFF" font-size="30" font-weight="800">91</text>
    <text x="864" y="348" fill="#6EE7B7" font-size="13" font-weight="700">Financial health strong</text>
  </g>

  <g filter="url(#wwFloatShadow)">
    <rect x="508" y="390" width="310" height="138" rx="26" fill="white"/>
    <rect x="838" y="390" width="134" height="138" rx="26" fill="#F8FAFC"/>
  </g>

  <g font-family="Segoe UI, Arial, sans-serif">
    <text x="532" y="422" fill="#0F172A" font-size="18" font-weight="800">Savings momentum</text>
    <text x="532" y="443" fill="#64748B" font-size="13">Progress toward three active goals</text>
  </g>

  <rect x="532" y="462" width="262" height="12" rx="6" fill="#E2E8F0"/>
  <rect x="532" y="462" width="182" height="12" rx="6" fill="#14B8A6"/>
  <rect x="532" y="486" width="262" height="12" rx="6" fill="#E2E8F0"/>
  <rect x="532" y="486" width="128" height="12" rx="6" fill="#38BDF8"/>
  <rect x="532" y="510" width="262" height="12" rx="6" fill="#E2E8F0"/>
  <rect x="532" y="510" width="208" height="12" rx="6" fill="#F59E0B"/>

  <g fill="#334155" font-family="Segoe UI, Arial, sans-serif" font-size="12.5" font-weight="700">
    <text x="532" y="457">Emergency fund</text>
    <text x="745" y="457">69%</text>
    <text x="532" y="481">Travel plan</text>
    <text x="745" y="481">48%</text>
    <text x="532" y="505">Home upgrade</text>
    <text x="745" y="505">79%</text>
  </g>

  <g font-family="Segoe UI, Arial, sans-serif">
    <text x="862" y="422" fill="#0F172A" font-size="18" font-weight="800">Smart split</text>
    <text x="862" y="443" fill="#64748B" font-size="13">This month</text>
  </g>

  <circle cx="906" cy="486" r="34" fill="none" stroke="#DBEAFE" stroke-width="14"/>
  <path d="M906 452A34 34 0 0 1 939 478" stroke="#38BDF8" stroke-width="14" stroke-linecap="round"/>
  <path d="M939 478A34 34 0 0 1 924 514" stroke="#14B8A6" stroke-width="14" stroke-linecap="round"/>
  <path d="M924 514A34 34 0 0 1 882 506" stroke="#F59E0B" stroke-width="14" stroke-linecap="round"/>

  <g fill="#475569" font-family="Segoe UI, Arial, sans-serif" font-size="12.5" font-weight="700">
    <rect x="856" y="530" width="9" height="9" rx="3" fill="#38BDF8"/>
    <text x="871" y="539">Essentials</text>
    <rect x="856" y="550" width="9" height="9" rx="3" fill="#14B8A6"/>
    <text x="871" y="559">Saving</text>
  </g>

  <g filter="url(#wwFloatShadow)">
    <rect x="988" y="196" width="196" height="92" rx="22" fill="#FFFFFF"/>
    <rect x="108" y="508" width="246" height="96" rx="26" fill="#FFFFFF"/>
  </g>

  <g font-family="Segoe UI, Arial, sans-serif">
    <text x="1012" y="228" fill="#64748B" font-size="12" font-weight="700" letter-spacing="2.2">INSIGHT</text>
    <text x="1012" y="257" fill="#0F172A" font-size="21" font-weight="800">Low risk week</text>
    <text x="1012" y="277" fill="#14B8A6" font-size="13" font-weight="700">Spending stayed under plan</text>

    <text x="132" y="540" fill="#64748B" font-size="12" font-weight="700" letter-spacing="2.2">SYNC STATUS</text>
    <text x="132" y="569" fill="#0F172A" font-size="20" font-weight="800">All accounts fresh</text>
    <text x="132" y="590" fill="#0284C7" font-size="13" font-weight="700">Updated 2 minutes ago</text>
  </g>
</svg>
